<?xml version="1.0" encoding="iso-8859-1"?>
<!-- Generator: Adobe Illustrator 19.0.0, SVG Export Plug-In . SVG Version: 6.00 Build 0)  -->
<svg version="1.1" id="Capa_1" xmlns="http://www.w3.org/2000/svg" xmlns:xlink="http://www.w3.org/1999/xlink" x="0px" y="0px"
	 viewBox="0 0 496 496" style="enable-background:new 0 0 496 496;" xml:space="preserve">
<rect x="32" y="80" style="fill:#FFA64D;" width="464" height="336"/>
<g>
	<path style="fill:#333333;" d="M336,416h-16v16h-16v16h80v8c0,13.232-10.768,24-24,24H71.792c5.08-6.704,8.208-14.96,8.208-24v-8
		h208v-16H64v24c0,13.232-10.768,24-24,24s-24-10.768-24-24V40c0-13.232,10.768-24,24-24s24,10.768,24,24v24h256v16h16V64h64V40
		c0-22.056-17.944-40-40-40H40C17.944,0,0,17.944,0,40v416c0,22.056,17.944,40,40,40h320c22.056,0,40-17.944,40-40v-24h-64V416z
		 M360,16c13.232,0,24,10.768,24,24v8H80v-8c0-9-2.984-17.312-8.016-24H360z"/>
	<polygon style="fill:#333333;" points="272,112 256,112 256,120 128,120 128,112 112,112 112,144 128,144 128,136 256,136 256,144 
		272,144 	"/>
	<polygon style="fill:#333333;" points="352,368 352,384 384,384 384,368 376,368 376,240 384,240 384,224 352,224 352,240 360,240 
		360,368 	"/>
	<path style="fill:#333333;" d="M112,384h160v-88h-80v-72h-80V384z M128,272h48v32v8v56h-48V272z M256,312v56h-64v-56H256z M176,240
		v16h-48v-16H176z"/>
	<rect x="112" y="160" style="fill:#333333;" width="16" height="16"/>
	<rect x="256" y="160" style="fill:#333333;" width="16" height="16"/>
	<rect x="320" y="224" style="fill:#333333;" width="16" height="16"/>
	<rect x="320" y="368" style="fill:#333333;" width="16" height="16"/>
	<rect x="256" y="192" style="fill:#333333;" width="16" height="16"/>
	<rect x="288" y="224" style="fill:#333333;" width="16" height="16"/>
	<rect x="288" y="368" style="fill:#333333;" width="16" height="16"/>
	<rect x="112" y="192" style="fill:#333333;" width="16" height="16"/>
	<rect x="336" y="112" style="fill:#333333;" width="96" height="16"/>
	<rect x="416" y="144" style="fill:#333333;" width="16" height="16"/>
	<rect x="336" y="144" style="fill:#333333;" width="64" height="16"/>
</g>
<g>
</g>
<g>
</g>
<g>
</g>
<g>
</g>
<g>
</g>
<g>
</g>
<g>
</g>
<g>
</g>
<g>
</g>
<g>
</g>
<g>
</g>
<g>
</g>
<g>
</g>
<g>
</g>
<g>
</g>
</svg>
