<?xml version="1.0" encoding="iso-8859-1"?>
<!-- Generator: Adobe Illustrator 19.0.0, SVG Export Plug-In . SVG Version: 6.00 Build 0)  -->
<svg version="1.1" id="Capa_1" xmlns="http://www.w3.org/2000/svg" xmlns:xlink="http://www.w3.org/1999/xlink" x="0px" y="0px"
	 viewBox="0 0 496 496" style="enable-background:new 0 0 496 496;" xml:space="preserve">
<g>
	<rect x="208" y="448" style="fill:#FFA64D;" width="192" height="16"/>
	<path style="fill:#FFA64D;" d="M80,336H32v-64h48V336z"/>
	<path style="fill:#FFA64D;" d="M176,336h-48v-64h48V336z"/>
</g>
<path style="fill:#333333;" d="M472,80h-8v-8c0-13.232-10.768-24-24-24h-8h-8h-56V27.056L313.888,0h-19.776L240,27.056V48h-48v16
	H44.688L0,108.688V128h80v81.472c-9.288,3.312-16,12.112-16,22.528v8H0v128h208V240h-64v-8c0-10.416-6.712-19.216-16-22.528V128h64
	h8h24v288h-14.248l-20,80h228.496l-20-80H384V128h32v72c0,13.232,10.768,24,24,24h32c13.232,0,24-10.768,24-24v-96
	C496,90.768,485.232,80,472,80z M480,104v8h-48v-8c0-4.408,3.592-8,8-8h32C476.408,96,480,99.592,480,104z M432,160h48v16h-48V160z
	 M432,144v-16h48v16H432z M440,64c4.408,0,8,3.592,8,8v8h-8c-2.816,0-5.488,0.576-8,1.472V64H440z M256,36.944L297.888,16h12.224
	L352,36.944V48h-24V32h-16v16h-16V32h-16v16h-24V36.944z M92.944,112L104,89.888L115.056,112H92.944z M76,110.112L60.944,80h30.112
	L76,110.112z M116.944,80h30.112L132,110.112L116.944,80z M160,89.888L171.056,112h-22.112L160,89.888z M45.808,85.504L59.056,112
	H19.312L45.808,85.504z M128,248v8h64v96H16v-96h96v-16H80v-8c0-4.408,3.592-8,8-8h32c4.408,0,8,3.592,8,8v8V248z M112,208H96v-80
	h16V208z M188.944,112l-16-32H192v32H188.944z M296,224v31.648L255.32,224H296z M258.424,208L296,182.944V208H258.424z M296,336
	v25.056L258.424,336H296z M255.312,320L296,288.352V320H255.312z M312,336h37.576L312,361.056V336z M312,320v-31.648L352.688,320
	H312z M312,224h40.68L312,255.648V224z M312,208v-25.056L349.576,208H312z M240,201.056v-66.104L289.576,168L240,201.056z
	 M240,232.36L290.968,272L240,311.648V232.36z M289.576,376L240,409.056v-66.104L289.576,376z M296,390.944V416h-37.576L296,390.944
	z M312,390.944L349.576,416H312V390.944z M318.424,376L368,342.944v66.104L318.424,376z M368,311.648L317.032,272L368,232.36
	V311.648z M318.424,168L368,134.944v66.104L318.424,168z M312,153.056V128h37.576L312,153.056z M296,153.056L258.424,128H296
	V153.056z M397.752,480H210.248l12-48h163.504L397.752,480z M208,112V64h208v40v8H208z M472,208h-32c-4.408,0-8-3.592-8-8v-8h48v8
	C480,204.408,476.408,208,472,208z"/>
<rect x="208" y="80" style="fill:#FFA64D;" width="208" height="16"/>
<g>
</g>
<g>
</g>
<g>
</g>
<g>
</g>
<g>
</g>
<g>
</g>
<g>
</g>
<g>
</g>
<g>
</g>
<g>
</g>
<g>
</g>
<g>
</g>
<g>
</g>
<g>
</g>
<g>
</g>
</svg>
