<?xml version="1.0" encoding="iso-8859-1"?>
<!-- Generator: Adobe Illustrator 19.0.0, SVG Export Plug-In . SVG Version: 6.00 Build 0)  -->
<svg version="1.1" id="Capa_1" xmlns="http://www.w3.org/2000/svg" xmlns:xlink="http://www.w3.org/1999/xlink" x="0px" y="0px"
	 viewBox="0 0 496 496" style="enable-background:new 0 0 496 496;" xml:space="preserve">
<path style="fill:#FFA64D;" d="M336,280v-32h-17.848c-1.824-8.024-4.992-15.52-9.248-22.28l12.632-12.632l-22.624-22.624
	l-12.632,12.632c-6.76-4.256-14.256-7.424-22.28-9.248V176h-32v17.848c-8.024,1.824-15.52,4.992-22.28,9.248l-12.632-12.632
	l-22.624,22.624l12.632,12.632c-4.256,6.76-7.424,14.256-9.248,22.28H160v32h17.848c1.824,8.024,4.992,15.52,9.248,22.28
	l-12.632,12.632l22.624,22.624l12.632-12.632c6.76,4.256,14.256,7.424,22.28,9.248V352h32v-17.848
	c8.024-1.824,15.52-4.992,22.28-9.248l12.632,12.632l22.624-22.624l-12.632-12.632c4.256-6.76,7.424-14.256,9.248-22.28L336,280
	L336,280z"/>
<g>
	<path style="fill:#333333;" d="M248,296c-17.648,0-32-14.352-32-32s14.352-32,32-32s32,14.352,32,32S265.648,296,248,296z M248,248
		c-8.824,0-16,7.176-16,16s7.176,16,16,16s16-7.176,16-16S256.824,248,248,248z"/>
	<polygon style="fill:#333333;" points="480,296 408,296 408,280 464,280 464,168 480,168 	"/>
	<polygon style="fill:#333333;" points="480,456 464,456 464,344 408,344 408,328 480,328 	"/>
	<rect x="432" y="248" style="fill:#333333;" width="16" height="16"/>
	<rect x="432" y="216" style="fill:#333333;" width="16" height="16"/>
	<path style="fill:#333333;" d="M392,264c0-76.704-60.328-139.408-136-143.592V40h-16v80.408C164.328,124.592,104,187.296,104,264
		c0,48.344,23.832,92.712,64,119.576V384h-16v16h16v16h-16v16h16v16h-16v16h16v32h160v-32h16v-16h-16v-16h16v-16h-16v-16h16v-16h-16
		v-0.424C368.168,356.712,392,312.344,392,264z M312,480H184v-16h128V480z M312,416h-16v16h16v16H184v-16h96v-16h-96v-16h128V416z
		 M315.76,372.448L312,374.8v9.2H184v-9.2l-3.76-2.352C142.52,348.824,120,308.288,120,264c0-70.576,57.424-128,128-128
		s128,57.424,128,128C376,308.288,353.48,348.824,315.76,372.448z"/>
	<rect x="432" y="184" style="fill:#333333;" width="16" height="16"/>
	<rect x="432" y="424" style="fill:#333333;" width="16" height="16"/>
</g>
<g>
	<path style="fill:#FFA64D;" d="M248,48c-13.232,0-24-10.768-24-24s10.768-24,24-24s24,10.768,24,24S261.232,48,248,48z"/>
	<path style="fill:#FFA64D;" d="M472,176c-13.232,0-24-10.768-24-24s10.768-24,24-24s24,10.768,24,24S485.232,176,472,176z"/>
</g>
<g>
	<rect x="432" y="392" style="fill:#333333;" width="16" height="16"/>
	<rect x="432" y="360" style="fill:#333333;" width="16" height="16"/>
</g>
<path style="fill:#FFA64D;" d="M472,496c-13.232,0-24-10.768-24-24s10.768-24,24-24s24,10.768,24,24S485.232,496,472,496z"/>
<g>
	<polygon style="fill:#333333;" points="88,296 16,296 16,168 32,168 32,280 88,280 	"/>
	<polygon style="fill:#333333;" points="32,456 16,456 16,328 88,328 88,344 32,344 	"/>
	<rect x="48" y="248" style="fill:#333333;" width="16" height="16"/>
	<rect x="48" y="216" style="fill:#333333;" width="16" height="16"/>
	<rect x="48" y="184" style="fill:#333333;" width="16" height="16"/>
	<rect x="48" y="424" style="fill:#333333;" width="16" height="16"/>
	<rect x="48" y="392" style="fill:#333333;" width="16" height="16"/>
</g>
<path style="fill:#FFA64D;" d="M24,176c-13.232,0-24-10.768-24-24s10.768-24,24-24s24,10.768,24,24S37.232,176,24,176z"/>
<rect x="48" y="360" style="fill:#333333;" width="16" height="16"/>
<path style="fill:#FFA64D;" d="M24,496c-13.232,0-24-10.768-24-24s10.768-24,24-24s24,10.768,24,24S37.232,496,24,496z"/>
<g>
</g>
<g>
</g>
<g>
</g>
<g>
</g>
<g>
</g>
<g>
</g>
<g>
</g>
<g>
</g>
<g>
</g>
<g>
</g>
<g>
</g>
<g>
</g>
<g>
</g>
<g>
</g>
<g>
</g>
</svg>
