<?xml version="1.0" encoding="iso-8859-1"?>
<!-- Generator: Adobe Illustrator 19.0.0, SVG Export Plug-In . SVG Version: 6.00 Build 0)  -->
<svg xmlns="http://www.w3.org/2000/svg" xmlns:xlink="http://www.w3.org/1999/xlink" version="1.1" id="Capa_1" x="0px" y="0px" viewBox="0 0 512 512" style="enable-background:new 0 0 512 512;" xml:space="preserve" width="512px" height="512px">
<g>
	<g>
		<path d="M311.518,356.101H195.996c-9.292,0-16.824,7.531-16.824,16.824v122.252c0,9.292,7.531,16.824,16.824,16.824h115.522    c9.298,0,16.824-7.531,16.824-16.824V372.924C328.342,363.632,320.81,356.101,311.518,356.101z M294.694,478.353h-81.875v-88.605    h81.875V478.353z" fill="#ffc20a"/>
	</g>
</g>
<g>
	<g>
		<path d="M253.757,94.773c-85.038,0-154.217,69.179-154.217,154.217c0,60.986,36.076,116.341,91.902,141.005l13.599-30.776    c-43.652-19.286-71.854-62.556-71.854-110.229c0-66.481,54.094-120.57,120.57-120.57s120.57,54.088,120.57,120.57    c0,47.863-28.421,91.347-72.415,110.795l13.605,30.776c56.169-24.826,92.457-80.395,92.457-141.571    C407.974,163.952,338.795,94.773,253.757,94.773z" fill="#ffc20a"/>
	</g>
</g>
<g>
	<g>
		<rect x="195.996" y="417.787" width="115.522" height="33.647" fill="#ffc20a"/>
	</g>
</g>
<g>
	<g>
		<rect x="239.176" width="33.647" height="70.099" fill="#ffc20a"/>
	</g>
</g>
<g>
	<g>
		<rect x="430.966" y="228.241" width="70.659" height="33.647" fill="#ffc20a"/>
	</g>
</g>
<g>
	<g>
		<rect x="10.375" y="228.241" width="70.659" height="33.647" fill="#ffc20a"/>
	</g>
</g>
<g>
	<g>
		<rect x="90.567" y="61.562" transform="matrix(0.7071 -0.7071 0.7071 0.7071 -36.752 104.1859)" width="33.641" height="69.789" fill="#ffc20a"/>
	</g>
</g>
<g>
	<g>
		
			<rect x="369.711" y="79.658" transform="matrix(0.7071 -0.7071 0.7071 0.7071 50.2852 314.3571)" width="69.789" height="33.641" fill="#ffc20a"/>
	</g>
</g>
<g>
</g>
<g>
</g>
<g>
</g>
<g>
</g>
<g>
</g>
<g>
</g>
<g>
</g>
<g>
</g>
<g>
</g>
<g>
</g>
<g>
</g>
<g>
</g>
<g>
</g>
<g>
</g>
<g>
</g>
</svg>
